<svg xmlns="http://www.w3.org/2000/svg" version="1.1" xmlns:xlink="http://www.w3.org/1999/xlink" xmlns:svgjs="http://svgjs.com/svgjs" width="1920" height="1080" preserveAspectRatio="none" viewBox="0 0 1920 1080"><g mask="url(&quot;#SvgjsMask1089&quot;)" fill="none"><rect width="1920" height="1080" x="0" y="0" fill="rgba(22, 3, 3, 1)"></rect><path d="M267.10028031369245-77.68955866603011L-7.18886689069592 93.70532298333816 164.20601475867235 367.99447018772656 438.4951619630607 196.59958853835826z" fill="rgba(67, 12, 12, 0.4)" class="triangle-float3"></path><path d="M989.0712769610541 627.4126184792079L1286.3749639081448 690.9026660267741 1208.6771142735577 436.7644510988984z" fill="rgba(67, 12, 12, 0.4)" class="triangle-float1"></path><path d="M591.092,880.588C625.918,882.177,658.226,861.545,675.183,831.085C691.703,801.41,688.749,765.368,671.533,736.092C654.568,707.243,624.556,687.655,591.092,688.087C558.311,688.51,529.482,709.135,514.17,738.124C499.819,765.294,504.717,796.937,519.315,823.975C534.832,852.714,558.466,879.1,591.092,880.588" fill="rgba(67, 12, 12, 0.4)" class="triangle-float1"></path><path d="M57.9675523917534 991.3717921519369L304.74768345970335 831.1109011861333-102.29333857405015 744.591661083987z" fill="rgba(67, 12, 12, 0.4)" class="triangle-float2"></path><path d="M765.2761057672444 312.3733328450298L678.0783530001897 551.9471895996994 917.6522097548593 639.1449423667541 1004.8499625219141 399.5710856120845z" fill="rgba(67, 12, 12, 0.4)" class="triangle-float2"></path><path d="M1736.763917268139 557.4530870906668L1501.7818602426448 373.50407533537094 1460.9735830159304 631.1573974868177z" fill="rgba(67, 12, 12, 0.4)" class="triangle-float3"></path><path d="M1650.5108969739738 620.4790819017882L1820.4739609087358 682.3405780987249 1712.3723931709105 450.51601796702624z" fill="rgba(67, 12, 12, 0.4)" class="triangle-float2"></path><path d="M648.183,162.721C683.705,163.53,721.107,150.775,737.675,119.343C753.48,89.36,736.615,55.748,720.201,26.094C703.013,-4.958,683.675,-42.509,648.183,-42.334C612.83,-42.16,593.796,-4.515,577.382,26.797C562.55,55.091,550.728,87.086,565.486,115.419C581.21,145.605,614.156,161.946,648.183,162.721" fill="rgba(67, 12, 12, 0.4)" class="triangle-float2"></path><path d="M1779.7085574636753 485.7864916494311L1881.4615137973997 257.2456098704163 1652.9206320183848 155.492653536692 1551.1676756846605 384.03353531570684z" fill="rgba(67, 12, 12, 0.4)" class="triangle-float3"></path><path d="M859.596,651.08C925.933,650.987,978.1,602.156,1012.143,545.22C1047.324,486.38,1071.924,413.71,1036.681,354.907C1002.085,297.183,926.865,288.75,859.596,290.694C796.583,292.515,731.88,310.63,699.397,364.656C666.054,420.113,674.721,489.172,706.308,545.648C738.754,603.659,793.128,651.173,859.596,651.08" fill="rgba(67, 12, 12, 0.4)" class="triangle-float2"></path><path d="M999.6138416201668 866.1925105674037L1118.9494153666078 1134.224597636869 1386.981502436073 1014.8890238904278 1267.645928689632 746.8569368209626z" fill="rgba(67, 12, 12, 0.4)" class="triangle-float2"></path></g><defs><mask id="SvgjsMask1089"><rect width="1920" height="1080" fill="#ffffff"></rect></mask><style>
            @keyframes float1 {
                0%{transform: translate(0, 0)}
                50%{transform: translate(-10px, 0)}
                100%{transform: translate(0, 0)}
            }

            .triangle-float1 {
                animation: float1 5s infinite;
            }

            @keyframes float2 {
                0%{transform: translate(0, 0)}
                50%{transform: translate(-5px, -5px)}
                100%{transform: translate(0, 0)}
            }

            .triangle-float2 {
                animation: float2 4s infinite;
            }

            @keyframes float3 {
                0%{transform: translate(0, 0)}
                50%{transform: translate(0, -10px)}
                100%{transform: translate(0, 0)}
            }

            .triangle-float3 {
                animation: float3 6s infinite;
            }
        </style></defs></svg>